<mxfile host="app.diagrams.net" modified="2023-01-18T03:12:01.828Z" agent="5.0 (Macintosh; Intel Mac OS X 10_15_7) AppleWebKit/537.36 (KHTML, like Gecko) Chrome/109.0.0.0 Safari/537.36" etag="ARVXJMl4YByRYqbuwSf6" version="20.8.5" type="github">
  <diagram id="PsIuzYxoiyNL7r7my2S0" name="Page-1">
    <mxGraphModel dx="954" dy="2308" grid="1" gridSize="10" guides="1" tooltips="1" connect="1" arrows="1" fold="1" page="1" pageScale="1" pageWidth="827" pageHeight="1169" math="0" shadow="0">
      <root>
        <mxCell id="0" />
        <mxCell id="1" parent="0" />
        <UserObject label="&lt;b&gt;&lt;font style=&quot;font-size: 24px;&quot;&gt;Title&lt;/font&gt;&lt;/b&gt;" treeRoot="1" tooltip="" id="FsfKpgWaojZNzxGTEw7e-4">
          <mxCell style="whiteSpace=wrap;html=1;align=center;treeFolding=1;treeMoving=1;newEdgeStyle={&quot;edgeStyle&quot;:&quot;elbowEdgeStyle&quot;,&quot;startArrow&quot;:&quot;none&quot;,&quot;endArrow&quot;:&quot;none&quot;};sketch=1;curveFitting=1;jiggle=2;connectable=1;shadow=1;" vertex="1" parent="1">
            <mxGeometry x="100" y="520" width="160" height="60" as="geometry" />
          </mxCell>
        </UserObject>
        <mxCell id="FsfKpgWaojZNzxGTEw7e-14" value="Sub Topic" style="whiteSpace=wrap;html=1;rounded=1;arcSize=50;align=center;verticalAlign=middle;strokeWidth=1;autosize=1;spacing=4;treeFolding=1;treeMoving=1;newEdgeStyle={&quot;edgeStyle&quot;:&quot;entityRelationEdgeStyle&quot;,&quot;startArrow&quot;:&quot;none&quot;,&quot;endArrow&quot;:&quot;none&quot;,&quot;segment&quot;:10,&quot;curved&quot;:1,&quot;sourcePerimeterSpacing&quot;:0,&quot;targetPerimeterSpacing&quot;:0};shadow=1;sketch=1;hachureGap=4;jiggle=2;curveFitting=1;fontFamily=Architects Daughter;fontSource=https%3A%2F%2Ffonts.googleapis.com%2Fcss%3Ffamily%3DArchitects%2BDaughter;fontSize=20;" vertex="1" parent="1">
          <mxGeometry x="310" y="340" width="140" height="40" as="geometry" />
        </mxCell>
        <mxCell id="FsfKpgWaojZNzxGTEw7e-15" value="" style="edgeStyle=entityRelationEdgeStyle;startArrow=none;endArrow=none;segment=10;curved=1;sourcePerimeterSpacing=0;targetPerimeterSpacing=0;rounded=0;sketch=1;hachureGap=4;jiggle=2;curveFitting=1;fontFamily=Architects Daughter;fontSource=https%3A%2F%2Ffonts.googleapis.com%2Fcss%3Ffamily%3DArchitects%2BDaughter;fontSize=16;exitX=1.031;exitY=0.367;exitDx=0;exitDy=0;exitPerimeter=0;" edge="1" target="FsfKpgWaojZNzxGTEw7e-14" parent="1" source="FsfKpgWaojZNzxGTEw7e-4">
          <mxGeometry relative="1" as="geometry">
            <mxPoint x="294" y="520" as="sourcePoint" />
          </mxGeometry>
        </mxCell>
      </root>
    </mxGraphModel>
  </diagram>
</mxfile>
